<svg xmlns="http://www.w3.org/2000/svg" xml:space="preserve" width="400" height="400" viewBox="0 0 105.833 105.833"><path d="M28.463 3.464 34.24 14.82c-1.204.325-2.266 1.05-3.387 1.61l.2.96-5.266-8.322-1.848 1.211 9.673 15.02c-2.536-3.054-5.022-6.256-7.62-9.13l-1.322 1.19 4.573 5.685-3.87 3.632.662.674.57-.48 2.857 3.028c-2.231 2.037-3.006 3.417-3.84 4.823l6.623 3.984c2.651-3.896 6.117-6.573 10.048-8.555l.41.725c.305-.186.665-.389.987-.536l-.42-.776a8 8 0 0 1 1.074-.448l-1.036-4.309c.68-.326 1.398-.466 2.119-.59l-.814-2.818.788-.45c-1.96.292-3.874.739-5.623 1.727L29.443 3.035Zm-16.849 30.53-.251.56 6.687 2.754-1.97 6.35 5.126 1.388-.622 3.625-9.845-.326-.233 4.652-8.654.305.1 2.045 14.355-.71.175-1.477 2.977-.09.18-2.483 3.955.048c-.185 1.107-.124 2.208-.176 3.311l-2.913.117.245 2.422 2.98-.222.153 1.19 5.008-.76c-.94-5.268-.26-8.394.405-11.538l-1.115-.106-.506 1.859-3.28-.915-.232.514-.404-.22 1.109-3.756c-1.755-.638-3.383-1.48-5.3-1.856l.35-1.189-.904-.208.44-1.317-1.134-1.082-2.19-.754.183-.499zm6.658-5.87L17.18 29.79l4.78 2.745 1.113-1.808zm-1.416 2.13-1.132 1.949 4.904 2.92 1.1-2.121zM44.614 8.19l.963 7.071-3.81 1.176.248.972 6.437-1.472-.667-7.84zM29.675 26.057c.297-.274.61-.519.972-.68l4.067 4.646-3.65 3.398-.378-.413c.668-.757 1.275-1.513 2.193-2.277L29.15 26.57c.175-.174.347-.349.525-.513m5.276-.902a14.3 14.3 0 0 1 2.083-.984l1.393 2.703c.26-.145.518-.292.88-.4l1.922 3.809c-.46.223-.661.342-1.674.927l-1.97-3.022c-.282.062-.473.229-.69.365zM51.71 10.683l-.31 5.237 1.154-.06-.011 4.066-2.516.053.094 3.838-1.016.118-.332-3.697a3.7 3.7 0 0 0-1.188.161l.568 3.945-.28.231.574 3.554c3.391-.33 6.734-.31 10.089.509l.95-3.949-1.04-.11.05-.672 1.13.083.553-2.359 2.248.407.768-1.616 1.796.604-3.33 8.659 1.865.726 3.179-5.783.325.163-.897 1.924 2.795 1.464-2.59 3.984c2.804 2.184 5.476 4.816 7.34 8.053l3.709-2.404c-.077-.298-.226-.452-.347-.673l.324-.316 1.71 2.911-4.427 2.33c.567 1.053.876 2.062 1.17 3.068l6.906-1.657 1.06 3.323.411-.121c-.193-2.69-.794-5.218-2.09-7.473l5.397-3.026c-.407-1.097-1.198-2.106-1.918-3.132l2.604-1.943-.21-.28c-2.684 1.239-5.326 2.584-7.879 4.15l-.752-.87-2.48 1.764.238.533-.398.235c-.19-.372-.387-.623-.644-1.044l2.918-1.959-.283-.393 9.403-7.375c-.556-.829-1.212-1.543-1.898-2.22l-1.9 1.629c-.502-.74-1.252-1.485-1.982-2.228l-2.702 2.461-.885-.86-.911.834.985 1.122-3.167 3.167c-2.804-3.115-6.089-5.701-10.26-7.308l1.433-3.985.522.088 2.839-7.058-2.879-1.009-.762 2.374-1.627-.16-1.033 3.527-2.832-.661-1.367 5.113-3.723-.656.23-5.029-1.071-.125.202-3.944c-1.085-.347-2.354-.274-3.602-.252zm-27.892 27.11-.312.616 2.96.926zm-.775 1.667-.451.948 7.288 2.787.215-.458zm27.895-18.95 1.285.057-.075 2.736 2.04.023-.01.56-3.357.01zm-19.77 18.479a12 12 0 0 0-1.286 2.45l.764.365c.393-.913.836-1.775 1.352-2.563zM15.246 55.597c.209 2.452.534 4.85 1.066 7.151l1.223-.297a314 314 0 0 1-1.26-7.055ZM73.969 6.82l-6.2 12.102c.616.254 1.232.503 1.846.774L75.803 7.76ZM20.834 57.005c.152 2.75 1.303 5.585 2.258 8.355-2.871 1.349-5.78 2.566-8.567 4.22l1.965 4.157 7.857-3.976-1.615-2.985c2.126-.98 4.312-2.16 6.513-3.394.344.828.795 1.673 1.194 2.51l1.656-.9c-1.24-2.335-2.47-4.678-3.107-7.57l-1.532.27c.102 1.003.318 1.994.502 2.989l-3.74.77-1.06-4.683zm51.504-41.043-2.38 3.941c1.375.615 2.654 1.414 3.931 2.214l.519-.798-1.823-1.56 1.72-2.91zM27.743 68.078c.167.322.333.644.591.955l-6.86 5.054 4.716 5.495 4.257-3.897c1.215 1.067 2.426 2.148 3.73 2.923l3.588-5.066 2.661 1.416-3.162 5.555c1.291.612 2.558 1.313 3.92 1.662l-1.82 4.556-2.486-.925-.594 1.064c1.958 1.048 3.885 1.767 5.798 2.313l-.892 3.27 1.207.232c.953-2.975 1.946-5.817 2.816-9.058l3.508.469-.266 9.75 2.714.036.338-3.175c.556.03 1.095.092 1.73-.025l.232-6.35c2.55.01 4.944-.262 7.118-1.03l-.598-1.57c-1.541.338-2.989.645-4.62.593l-.143-.767c.69.069 1.345.025 1.935-.243.295-1.103-.227-2.563-.44-3.888.893-.19 1.74-.44 2.582-.699l1.813 6.476c1.337-.31 2.697-.855 4.065-1.493l4.385 8.453.815-.39-1.107-2.49 5.08-2.815-3.796-5.654.213-.148L75.003 84l1.824-1.322 3.077 3.657c.268-.03.43-.204.616-.347l-1.447-1.718.78-.643 7.467 9.495.952-.824-7.44-9.629 1.636-1.563c-1.976-2.238-4.38-4.195-6.59-6.28L74.11 76.38l-1.454-1.508-2.674 2.119s-.466-.425-.374-.458 3.979-3.516 3.979-3.516l1.788 1.82c1.175-1.157 2.317-2.359 3.27-3.806-2.064-1.286-4.078-2.754-6.193-3.859l1.647-2.68-.287-.114c-1.003 1.273-1.9 2.455-3.61 4.339l-2.266-2.574-.889.765 2.153 2.77c-6.703 6.825-16.115 8.136-25.01 5.356l-.512 1.392 2.85.804-1.165 4.285-5.125-1.859 2.131-5.62c-5.286-2.218-7.29-5.488-10.155-8.497Zm.888 2.09.384-.322c1.091 1.445 2.271 2.723 3.445 4.014l-.349.266c-1.185-1.272-2.362-2.56-3.48-3.958m45.325-41.013 2.381 2.484 1.334-1.152 1.36 1.512-3.389 2.978c-1.184-1.342-2.436-2.62-3.667-3.918zm-43.266 53-2.498 4.21 3.722 2.351 1.92-3.114 1.53.68.615-1.104zm45.948-32.98a30.2 30.2 0 0 1-.715 9.371l7.444 1.694-.432 1.81 9.023 3.371c.348-1.05.63-2.12.785-3.228l-8.584-2.556c.18-1.321.516-2.591.421-4.003l6.587.268-.036-4.46-1.08.017v.988l-5.315-.17c.183-1.158-.032-2.272-.08-3.404l-3.22.32-.05-.847zM29.23 94.09l-1.014 2.019 1.742.766.947-2.017zm59.135-52.292c.516 2.07 1.012 4.217 1.47 6.507l6.344-.8-.24-3.003-2.614.273-.686-4.028zM81.67 51.822l.527.024a54 54 0 0 1-.042 3.245l-.534-.017c.038-1.056.05-2.145.049-3.252M49.784 81.851c1.416-.024 2.784.084 4.253-.084l-.073.735-1.142-.018-.137 2.786-3.173.004zM74.407 62.77l-.18.45 5.079 2.576c-.526 1.058-.898 2.006-2.141 3.83l1.684 1.168c1.304-1.705 2.65-3.725 3.24-6.128l5.16 1.92-.37 1.25 5.54 2.182 1.12-2.67-2.1-.916.218-.509-8.869-3.286c-.047.293-.17.753-.357 1.203l-2.004-.641c-.273.56-.485 1.17-.655 1.588zm15.496-13.636.068 1.905 1.211-.117.042-.765 9.544-.515.076.903 1.342-.135.06-1.917zm-27.227 26.21c.92-.312 1.78-.788 2.63-1.286l2.247 4.37c-.348.197-.718.35-1.09.5l1.056 2.315c-.417.433-.825.556-1.236.794zM55.9 89.579l.026 1.13 4.587-.52.404 2.867 3.09-.818-.99-3.709zm29.814-19.142-2.527 4.128 1.005.463 2.278-4.131zm-7.864 23.612.622.656 1.585-1.428-.508-.542z" style="fill:currentColor"/></svg>