<svg xmlns="http://www.w3.org/2000/svg" xml:space="preserve" width="400" height="400" viewBox="0 0 105.833 105.833"><path d="m68.516 0-3.463 12.261c-1.104-.578-2.377-.766-3.58-1.116l-.504.842L62.75 2.3l-2.18-.364-3.088 17.597c.21-3.965.557-8.004.599-11.879l-1.778-.022-.5 7.279-5.308.041.03.945.745.033.043 4.164c-3.021-.02-4.527.469-6.094.936l2.16 7.42c4.592-1.061 8.955-.676 13.187.536l-.191.81c.35.071.752.167 1.088.277l.22-.855c.386.108.817.273 1.092.4l2.162-3.868c.722.223 1.344.607 1.958 1.004l1.314-2.622.885.204c-1.639-1.116-3.347-2.086-5.303-2.547L69.527.349ZM35.423 10.989l-.566.241 3.043 6.56-5.755 3.327 2.822 4.499-2.917 2.24-7.009-6.92-3.328 3.258-6.564-5.649-1.314 1.57 11.025 9.22 1.13-.965 2.249 1.954 1.817-1.702 2.872 2.72c-.887.687-1.589 1.537-2.376 2.312l-2.22-1.891-1.463 1.945 2.34 1.86-.695.977 4.193 2.841c2.886-4.507 5.506-6.342 8.128-8.2l-.746-.834-1.634 1.021-1.789-2.898-.518.221-.149-.436 3.365-2.007c-.856-1.659-1.481-3.381-2.634-4.96l1.065-.635-.523-.766 1.217-.669-.099-1.564-1.097-2.04.473-.242zm8.873.207-1.932.483 1.648 5.26 2.045-.572zm-2.485.604-2.154.662 1.62 5.473 2.248-.81zm35.36 2.632L73.08 20.28l-3.596-1.723-.478.883 5.726 3.287 4.832-6.211zm-23.097 2.984c.404 0 .8.033 1.175.16l-.166 6.172-4.987.019.003-.56c1.005-.102 1.964-.245 3.157-.183l.085-5.587c.246-.01.491-.02.733-.02m4.487 2.919q1.154.265 2.198.69l-.811 2.93c.29.07.578.138.916.304l-1.172 4.102c-.488-.148-.717-.198-1.858-.455l.603-3.557c-.249-.145-.502-.152-.754-.2Zm22.13.743-3.78 3.636.887.74-2.768 2.978-1.883-1.668-2.535 2.883-.827-.603 2.265-2.94a3.7 3.7 0 0 0-.982-.69l-2.26 3.285-.362-.02-1.99 2.999c2.714 2.059 5.156 4.342 7.064 7.22l3.377-2.256-.688-.787.492-.46.774.828 2.007-1.356 1.375 1.824 1.66-.665.91 1.662-8.322 4.1.877 1.799 6.26-2.09.128.34-1.965.804 1.059 2.972-4.606 1.168c.578 3.508.754 7.254-.074 10.896l4.356.752c.146-.27.142-.485.202-.73l.453-.012-.72 3.298-4.833-1.292c-.298 1.158-.756 2.108-1.223 3.046l6.197 3.47-1.476 3.161.384.19c1.683-2.107 2.958-4.372 3.536-6.908l6.017 1.44c.446-1.082.55-2.36.717-3.601l3.232.34.034-.349c-2.811-.911-5.664-1.716-8.602-2.298l.038-1.149-3.018-.388-.188.553-.451-.097c.113-.402.139-.72.235-1.205l3.473.542.059-.48 11.91.964c.155-.987.158-1.956.114-2.92l-2.5-.092c.133-.884.087-1.94.055-2.981l-3.655-.027-.067-1.231-1.235-.006-.037 1.492-4.476.178c.055-4.192-.603-8.32-2.576-12.332l3.757-1.954.323.42 6.875-3.258-1.43-2.695-2.17 1.226-1.087-1.22-3.152 1.889-1.631-2.409-4.474 2.829-2.29-3.009 3.583-3.537-.703-.819 2.825-2.76c-.56-.99-1.543-1.799-2.474-2.63Zm-38.884.984-.646.24 1.545 2.689zm-1.7.698-.974.39 3.462 6.993.468-.19zm33.349 5.012.905.914-1.912 1.959 1.483 1.401-.387.404-2.473-2.27zm-27.061.155a12 12 0 0 0-2.607.927l.313.787c.908-.404 1.819-.736 2.732-.965zM23.43 29.321c-1.51 1.943-2.899 3.925-4.07 5.976l1.1.612a314 314 0 0 1 3.862-6.037zm76.231 4.026L86.895 38.03c.28.604.564 1.205.83 1.82l12.646-4.568zm-73.083.8c-1.755 2.124-2.833 4.986-4.011 7.67-3.025-.959-5.986-2.038-9.157-2.715l-1.377 4.386 8.469 2.412.84-3.288c2.226.723 4.633 1.339 7.087 1.927-.31.842-.553 1.768-.828 2.654l1.828.462c.673-2.556 1.36-5.112 2.855-7.668l-1.308-.84c-.606.805-1.12 1.679-1.66 2.534l-3.27-1.973 2.4-4.158zm65.681 4.807-4.422 1.28c.593 1.385.99 2.839 1.385 4.294l.922-.234-.28-2.384 3.239-.969zM24.138 46.97c-.096.35-.192.699-.214 1.102l-8.468-.943-.265 7.237 5.77.026c.17 1.608.325 3.224.757 4.678l6.073-1.286.994 2.846-6.093 1.934c.533 1.326.988 2.7 1.751 3.88l-4.429 2.111-1.197-2.366-1.158.38c.726 2.097 1.654 3.934 2.689 5.633l-2.875 1.796.73.99c2.718-1.539 5.376-2.952 8.215-4.743l2.258 2.726-6.813 6.98 1.97 1.868 2.402-2.102c.389.4.743.81 1.288 1.156l4.48-4.507c1.866 1.738 3.808 3.163 5.926 4.074l.626-1.558c-1.36-.798-2.632-1.555-3.794-2.7l.415-.661c.46.518.971.932 1.586 1.135.965-.61 1.572-2.037 2.315-3.155.785.467 1.578.859 2.371 1.24l-3.063 5.986c1.192.68 2.561 1.202 3.999 1.663l-2.516 9.183.862.268.878-2.58 5.642 1.38 1.048-6.73.257.036-.51 6.789 2.237.267-.222 4.773c.217.16.455.143.688.164l.103-2.244 1.01.057-.96 12.041 1.258.04 1.07-12.12 2.263-.038c.067-2.985-.37-6.053-.579-9.084l-2.354-.06-.045-2.093-3.401-.26s-.055-.627.035-.589 5.31.117 5.31.117l.077 2.552c1.649-.053 3.303-.161 4.984-.577-.643-2.346-1.125-4.79-1.93-7.037l3.029-.85-.133-.28c-1.6.254-3.062.514-5.596.737l.082-3.428-1.172-.04-.298 3.494c-9.555.465-17.358-4.96-22.004-13.039l-1.32.675 1.547 2.526-3.764 2.355-2.503-4.843 5.38-2.68c-2.378-5.218-1.63-8.98-1.692-13.134Zm29.199.798A4.346 4.232 0 0 0 48.99 52a4.346 4.232 0 0 0 4.346 4.233 4.346 4.232 0 0 0 4.345-4.233 4.346 4.232 0 0 0-4.345-4.232m-29.965 1.339.5.024c-.178 1.802-.18 3.542-.193 5.287l-.437-.042c-.007-1.739.002-3.483.13-5.27m61.123.636.063 3.44 1.762.06-.028 2.033-4.51-.112c.042-1.79-.01-3.578-.034-5.366zm-67.746 9.566-4.69 1.396 1.137 4.253 3.523-.984.663 1.537 1.2-.393zm56.13 6.958a30.2 30.2 0 0 1-6.885 6.398l4.318 6.296-1.546 1.036 4.34 8.6c.968-.535 1.9-1.13 2.766-1.838l-4.57-7.703c1.03-.848 2.138-1.553 3.026-2.655l4.657 4.667 3-3.3-.804-.72-.671.726-3.788-3.733c.92-.726 1.517-1.69 2.25-2.554l-2.582-1.95.539-.655zm-65.302.817-2.115.795.76 1.745 2.064-.838Zm78.92 1.724a141 141 0 0 1-3.335 5.778l5.202 3.717 1.862-2.368-2.105-1.574 2.23-3.424zm-11.72 2.818.37.375a54 54 0 0 1-2.232 2.355l-.38-.374a89 89 0 0 0 2.242-2.356m-43.797.417c1.056.944 1.987 1.951 3.18 2.825l-.552.49-.826-.788-1.991 1.953-2.334-2.15zm31.034 2.695-.437.21 1.982 5.338c-1.105.42-2.021.864-4.172 1.36l.444 2.001c2.115-.367 4.474-.938 6.538-2.303l2.488 4.912-1.12.669 2.587 5.36 2.635-1.2-.92-2.098.505-.226-4.284-8.432a6 6 0 0 1-1.079.641l-1.036-1.83c-.58.225-1.15.53-1.56.721zm20.635.501-1.243 1.446.97.736.55-.534 7.358 6.099-.556.715 1.077.811 1.345-1.367zm-37.784.774c.888.395 1.842.629 2.804.84l-1.315 4.735a9 9 0 0 1-1.14-.373l-.795 2.417c-.6.035-.983-.151-1.447-.255zm-14.637 5.857-.747.848 3.721 2.732-1.648 2.38 2.824 1.496 1.79-3.397zm34.889 6.174-4.658 1.317.424 1.022 4.476-1.488zm-21.8 12.006.012.903 2.132.028-.005-.743z" style="fill:currentColor"/></svg>